<?xml version="1.0" encoding="UTF-8"?><!DOCTYPE svg PUBLIC "-//W3C//DTD SVG 1.1//EN" "http://www.w3.org/Graphics/SVG/1.1/DTD/svg11.dtd"><svg xmlns="http://www.w3.org/2000/svg" xmlns:xlink="http://www.w3.org/1999/xlink"><defs><clipPath id="clip0"><path fill="#fff" d="M0 0h42v42H0z"/></clipPath><linearGradient id="paint0_linear" x1="33.88" y1="32.531" x2="32.081" y2="-9.159" gradientUnits="userSpaceOnUse"><stop stop-color="#535353"/><stop offset=".464" stop-color="#7F7F7F"/><stop offset="1" stop-color="#B5B5B5"/></linearGradient></defs><symbol id="icon--apps" viewBox="0 0 24 24"><path d="M4 8h4V4H4v4zm6 12h4v-4h-4v4zm-6 0h4v-4H4v4zm0-6h4v-4H4v4zm6 0h4v-4h-4v4zm6-10v4h4V4h-4zm-6 4h4V4h-4v4zm6 6h4v-4h-4v4zm0 6h4v-4h-4v4z"/></symbol><symbol id="icon--arrow-right" viewBox="0 0 25 24"><path d="M7.7 18l6-6-6-6 1.2-2.4 8.4 8.4-8.4 8.4L7.7 18z"/></symbol><symbol id="icon--btc-orange" viewBox="0 0 42 42"><path fill-rule="evenodd" clip-rule="evenodd" d="M21 42c11.598 0 21-9.402 21-21S32.598 0 21 0 0 9.402 0 21s9.402 21 21 21z" fill="#F97403"/><path fill-rule="evenodd" clip-rule="evenodd" d="M28.384 22.142c-.527-.685-1.323-1.156-2.387-1.412 1.355-.695 1.95-1.874 1.787-3.538-.055-.603-.22-1.126-.498-1.57a3.132 3.132 0 00-1.126-1.069 6.178 6.178 0 00-1.542-.617 12.1 12.1 0 00-1.91-.309v-3.455h-2.1v3.36c-.365 0-.92.009-1.665.027v-3.387h-2.101v3.455c-.3.01-.742.014-1.324.014l-2.892-.014v2.25h1.514c.691 0 1.096.31 1.214.932v3.935c.091 0 .164.005.219.014h-.219v5.512c-.072.466-.336.7-.79.7h-1.515l-.423 2.51h2.729c.172 0 .422.002.75.006.327.004.573.006.737.006v3.497h2.101v-3.455c.382.009.937.014 1.665.014v3.441h2.1v-3.496a16.239 16.239 0 001.986-.206c.577-.101 1.13-.258 1.657-.473a4.466 4.466 0 001.323-.803c.355-.32.648-.726.88-1.22.232-.494.38-1.065.444-1.714.119-1.27-.086-2.249-.614-2.935zm-8.555-5.87l.673-.014c.179-.005.42.007.723.037.303.029.559.068.766.117.208.05.437.13.686.244.25.113.448.25.598.413.15.162.276.369.38.62.104.25.156.538.156.863 0 .275-.038.526-.112.752a1.443 1.443 0 01-.337.568c-.149.152-.303.285-.46.398a1.93 1.93 0 01-.605.273c-.245.07-.46.123-.642.163-.183.039-.411.066-.685.08a11.7 11.7 0 01-1.203.03 39.998 39.998 0 00-.43-.007v-4.53c.058 0 .222-.002.492-.007zm5.002 9.576c.138-.152.251-.33.34-.536.087-.206.131-.433.131-.683 0-.32-.07-.607-.208-.856a2.024 2.024 0 00-.513-.616 2.672 2.672 0 00-.798-.408 6.945 6.945 0 00-.909-.248 8.472 8.472 0 00-1.026-.12 15.39 15.39 0 00-.957-.04c-.232 0-.53.004-.895.013-.366.01-.585.014-.66.014v4.523c.075 0 .246.003.514.007s.49.007.666.007a19.113 19.113 0 001.547-.074c.227-.022.49-.06.79-.114.301-.053.558-.115.77-.187.213-.072.433-.165.66-.281.226-.116.409-.25.547-.401z" fill="#fff"/></symbol><symbol id="icon--btc" viewBox="0 0 32 32"><path fill-rule="evenodd" clip-rule="evenodd" d="M16 32c8.837 0 16-7.163 16-16S24.837 0 16 0 0 7.163 0 16s7.163 16 16 16z" fill="#E8EBF1"/><path fill-rule="evenodd" clip-rule="evenodd" d="M21.626 16.87c-.402-.522-1.009-.88-1.82-1.076 1.033-.529 1.487-1.428 1.362-2.695a2.674 2.674 0 00-.38-1.196 2.386 2.386 0 00-.857-.815 4.704 4.704 0 00-1.175-.47 9.227 9.227 0 00-1.455-.235V7.75h-1.6v2.56c-.278 0-.7.007-1.269.02V7.75h-1.6v2.633c-.23.007-.566.01-1.01.01l-2.203-.01v1.713h1.154c.527 0 .835.237.925.71v3c.07 0 .125.003.166.01h-.166v4.2c-.055.355-.256.532-.603.532H9.942l-.323 1.912h2.08c.131 0 .322.002.571.005.25.004.437.006.561.006v2.664h1.601v-2.633c.291.007.714.01 1.269.01v2.623h1.6V22.47c.569-.027 1.073-.08 1.513-.156.44-.077.86-.197 1.263-.36a3.402 3.402 0 001.008-.612c.27-.243.493-.554.67-.93.177-.376.29-.811.338-1.306.09-.968-.065-1.713-.467-2.236zm-6.519-4.472l.513-.011c.136-.004.32.005.551.028.231.022.426.052.584.09.158.037.332.099.522.185s.342.191.456.315c.114.123.21.281.29.472.079.191.118.41.118.657 0 .21-.028.402-.085.574a1.099 1.099 0 01-.257.433 2.678 2.678 0 01-.351.303 1.47 1.47 0 01-.46.208 8.18 8.18 0 01-.49.124c-.139.03-.313.05-.522.062a8.866 8.866 0 01-.916.023 31.286 31.286 0 00-.328-.007v-3.45l.375-.006zm3.811 7.295a1.44 1.44 0 00.259-.408c.067-.156.1-.33.1-.52 0-.245-.052-.462-.158-.652a1.54 1.54 0 00-.391-.47 2.036 2.036 0 00-.608-.31 5.31 5.31 0 00-.692-.19 6.46 6.46 0 00-.783-.09c-.31-.021-.553-.031-.729-.031-.176 0-.403.003-.682.01-.278.007-.445.01-.502.01v3.447c.057 0 .187.001.391.005a14.59 14.59 0 001.686-.05c.173-.018.374-.047.603-.088.229-.04.424-.088.586-.143.162-.054.33-.125.502-.214.173-.088.312-.19.418-.306z" fill="#686868"/></symbol><symbol id="icon--card" viewBox="0 0 24 24"><path d="M20 4H4c-1.11 0-1.99.89-1.99 2L2 18c0 1.11.89 2 2 2h16c1.11 0 2-.89 2-2V6c0-1.11-.89-2-2-2zm0 14H4v-6h16v6zm0-10H4V6h16v2z"/></symbol><symbol id="icon--chart" viewBox="0 0 18 18"><path d="M4.5 15.75H2.25A.75.75 0 011.5 15V9a.75.75 0 01.75-.75H4.5a.75.75 0 01.75.75v6a.75.75 0 01-.75.75zm5.25 0H7.5a.75.75 0 01-.75-.75V2.25a.75.75 0 01.75-.75h2.25a.75.75 0 01.75.75V15a.75.75 0 01-.75.75zm5.25 0h-2.25A.75.75 0 0112 15V6.75a.75.75 0 01.75-.75H15a.75.75 0 01.75.75V15a.75.75 0 01-.75.75z"/></symbol><symbol id="icon--check" viewBox="0 0 8 6"><path fill-rule="evenodd" clip-rule="evenodd" d="M6.747.2a.759.759 0 01.516-.2.76.76 0 01.517.198c.137.127.217.3.22.483a.671.671 0 01-.203.49L3.885 5.778a.773.773 0 01-1.058.018L.233 3.354a.695.695 0 01-.17-.225.66.66 0 01.151-.772.775.775 0 011.058.018l2.052 1.933L6.73.22a.224.224 0 01.02-.02h-.002z" fill="#E8EBF1"/></symbol><symbol id="icon--clip" viewBox="0 0 18 18"><path d="M4.21 16.3A3.15 3.15 0 012 15.395l-.065-.065A3.1 3.1 0 011 13.11a3.385 3.385 0 011-2.41l7.75-7.665a4.335 4.335 0 016.075-.175A4 4 0 0117 5.72a4.5 4.5 0 01-1.35 3.18l-6.965 6.9A.5.5 0 118 15.09l6.945-6.9A3.501 3.501 0 0016 5.72a2.999 2.999 0 00-.88-2.15 3.335 3.335 0 00-4.67.175L2.725 11.41A2.39 2.39 0 002 13.11a2.105 2.105 0 00.62 1.5l.065.065a2.32 2.32 0 003.25-.105l6.675-6.6a1.351 1.351 0 00.302-1.425 1.175 1.175 0 00-.257-.385 1.305 1.305 0 00-1.83.065l-4.6 4.56a.5.5 0 01-.705-.71L10.14 5.5a2.31 2.31 0 013.24-.065A2.165 2.165 0 0114 7a2.34 2.34 0 01-.705 1.67L6.64 15.29a3.455 3.455 0 01-2.43 1.01z" fill="#686868"/></symbol><symbol id="icon--close" viewBox="0 0 24 24"><path d="M19 6.41L17.59 5 12 10.59 6.41 5 5 6.41 10.59 12 5 17.59 6.41 19 12 13.41 17.59 19 19 17.59 13.41 12 19 6.41z"/></symbol><symbol id="icon--copy" viewBox="0 0 18 18"><path d="M14.625 3.375H11.25L7.875 0H0v14.625h6.75V18H18V6.75l-3.375-3.375zm-6.75-2.25l2.25 2.25h-2.25v-2.25zM1.125 13.5V1.125H6.75V4.5h3.375v9h-9zm15.75 3.375h-9v-2.25h3.375V4.5h2.25v3.375h3.375v9zM14.625 6.75V4.5l2.25 2.25h-2.25z"/></symbol><symbol id="icon--eth-blue" viewBox="0 0 42 42"><g clip-path="url(#clip0)" fill-rule="evenodd" clip-rule="evenodd"><path d="M21 42c11.598 0 21-9.402 21-21S32.598 0 21 0 0 9.402 0 21s9.402 21 21 21z" fill="#1B86FA"/><path d="M21.953 9.948h-1.785l-7.335 13.11 7.335 9.8h1.785l7.238-9.8-7.238-13.11zm-1.787 9.825l-4.23 1.63 4.23-7.823v6.193zm0 1.909v2.794L16.5 23.079l3.666-1.397zm1.974 0l3.666 1.397-3.666 1.397v-2.794zm4.23-.28l-4.23-1.609V13.58l4.23 7.822zm-5.314 9.779L16.5 25.035l4.564 1.715 4.46-1.679-4.468 6.11z" fill="#fff"/></g></symbol><symbol id="icon--eth" viewBox="0 0 32 32"><path fill-rule="evenodd" clip-rule="evenodd" d="M16 32c8.837 0 16-7.163 16-16S24.837 0 16 0 0 7.163 0 16s7.163 16 16 16z" fill="#E8EBF1"/><path fill-rule="evenodd" clip-rule="evenodd" d="M16.726 7.58h-1.36L9.777 17.57l5.59 7.466h1.359l5.514-7.466-5.514-9.989zm-1.362 7.486l-3.223 1.241 3.223-5.96v4.719zm0 1.454v2.129l-2.793-1.065 2.793-1.064zm1.504 0l2.794 1.064-2.794 1.065V16.52zm3.223-.213l-3.223-1.226v-4.734l3.223 5.96zm-4.049 7.45l-3.471-4.682 3.477 1.307 3.399-1.28-3.405 4.655z" fill="#686868"/></symbol><symbol id="icon--eur" viewBox="0 0 32 32"><path fill-rule="evenodd" clip-rule="evenodd" d="M16 32c8.837 0 16-7.163 16-16S24.837 0 16 0 0 7.163 0 16s7.163 16 16 16z" fill="#E8EBF1"/><path d="M18.75 21.958a5.94 5.94 0 01-5.28-3.208h5.28v-1.833h-5.885a6.086 6.086 0 01-.073-.917c0-.312.027-.614.073-.917h5.885V13.25h-5.28a5.95 5.95 0 015.28-3.208c1.476 0 2.832.54 3.878 1.439l1.622-1.623a8.209 8.209 0 00-5.5-2.108c-3.593 0-6.637 2.3-7.773 5.5H7.75v1.833h2.805a7.578 7.578 0 000 1.834H7.75v1.833h3.227c1.136 3.2 4.18 5.5 7.773 5.5a8.191 8.191 0 005.5-2.108l-1.632-1.623a5.872 5.872 0 01-3.868 1.44z" fill="#686868"/></symbol><symbol id="icon--exit" viewBox="0 0 24 24"><path d="M10.09 15.59L11.5 17l5-5-5-5-1.41 1.41L12.67 11H3v2h9.67l-2.58 2.59zM19 3H5a2 2 0 00-2 2v4h2V5h14v14H5v-4H3v4a2 2 0 002 2h14c1.1 0 2-.9 2-2V5c0-1.1-.9-2-2-2z"/></symbol><symbol id="icon--hamburger" viewBox="0 0 24 24"><path d="M3 18h12v-2H3v2zM3 6v2h18V6H3zm0 7h18v-2H3v2z"/></symbol><symbol id="icon--help" viewBox="0 0 24 24"><path d="M11 18h2v-2h-2v2zm1-16C6.48 2 2 6.48 2 12s4.48 10 10 10 10-4.48 10-10S17.52 2 12 2zm0 18c-4.41 0-8-3.59-8-8s3.59-8 8-8 8 3.59 8 8-3.59 8-8 8zm0-14c-2.21 0-4 1.79-4 4h2c0-1.1.9-2 2-2s2 .9 2 2c0 2-3 1.75-3 5h2c0-2.25 3-2.5 3-5 0-2.21-1.79-4-4-4z"/></symbol><symbol id="icon--list" viewBox="0 0 24 24"><path d="M19 5v14H5V5h14zm1.1-2H3.9c-.5 0-.9.4-.9.9v16.2c0 .4.4.9.9.9h16.2c.4 0 .9-.5.9-.9V3.9c0-.5-.5-.9-.9-.9zM11 7h6v2h-6V7zm0 4h6v2h-6v-2zm0 4h6v2h-6v-2zM7 7h2v2H7V7zm0 4h2v2H7v-2zm0 4h2v2H7v-2z"/></symbol><symbol id="icon--lock" viewBox="0 0 25 24"><path d="M20 10.875h-1.594v-5.25a3 3 0 00-3-3H9.594a3 3 0 00-3 3v5.25H5a.75.75 0 00-.75.75v9c0 .415.335.75.75.75h15a.75.75 0 00.75-.75v-9a.75.75 0 00-.75-.75zM8.281 5.625c0-.724.589-1.313 1.313-1.313h5.812c.725 0 1.313.589 1.313 1.313v5.25H8.28v-5.25zm10.781 14.063H5.938v-7.125h13.125v7.124zm-7.218-3.258v1.242c0 .103.084.187.187.187h.938a.188.188 0 00.187-.187V16.43a1.125 1.125 0 10-1.312 0z"/></symbol><symbol id="icon--ltc" viewBox="0 0 18 18"><path d="M9 17A8 8 0 109 1a8 8 0 000 16z" fill="url(#paint0_linear)"/><path fill-rule="evenodd" clip-rule="evenodd" d="M8.587 5h-.195l-.057.166-1.243 3.655-.641.216-.132.044-.032.122-.178.697-.109.424.459-.154.197-.066-.543 1.595-.102.301h5.355l.061-.157.451-1.148.122-.31H8.691L9.043 9.3l.675-.227.12-.04.038-.11.25-.718.159-.456-.503.169-.326.109.887-2.73.096-.298H8.587zm.255 3.234l.898-2.767h-.957l-1.07 3.146 1.129-.379zm-1.32.942l1.138-.382-.05.154-1.142.384.053-.156zm-.622.209l-.13.044-.04.15.118-.039.052-.155zm.377.51l-.557 1.638h4.272l.267-.682H7.992l.097-.298.34-1.045-1.152.387zm1.948-1.154l.05-.153.19-.064-.054.154-.186.063z" fill="#fff"/></symbol><symbol id="icon--mail" viewBox="0 0 24 24"><path d="M20 4H4c-1.1 0-1.99.9-1.99 2L2 18c0 1.1.9 2 2 2h16c1.1 0 2-.9 2-2V6c0-1.1-.9-2-2-2zm0 14H4V8l8 5 8-5v10zm-8-7L4 6h16l-8 5z"/></symbol><symbol id="icon--money" viewBox="0 0 24 24"><path d="M11.8 10.9c-2.27-.59-3-1.2-3-2.15 0-1.09 1.01-1.85 2.7-1.85 1.78 0 2.44.85 2.5 2.1h2.21c-.07-1.72-1.12-3.3-3.21-3.81V3h-3v2.16c-1.94.42-3.5 1.68-3.5 3.61 0 2.31 1.91 3.46 4.7 4.13 2.5.6 3 1.48 3 2.41 0 .69-.49 1.79-2.7 1.79-2.06 0-2.87-.92-2.98-2.1h-2.2c.12 2.19 1.76 3.42 3.68 3.83V21h3v-2.15c1.95-.37 3.5-1.5 3.5-3.55 0-2.84-2.43-3.81-4.7-4.4z"/></symbol><symbol id="icon--more" viewBox="0 0 18 18"><path d="M4.5 7.5C3.675 7.5 3 8.175 3 9s.675 1.5 1.5 1.5S6 9.825 6 9s-.675-1.5-1.5-1.5zm9 0c-.825 0-1.5.675-1.5 1.5s.675 1.5 1.5 1.5S15 9.825 15 9s-.675-1.5-1.5-1.5zM9 7.5c-.825 0-1.5.675-1.5 1.5s.675 1.5 1.5 1.5 1.5-.675 1.5-1.5S9.825 7.5 9 7.5z"/></symbol><symbol id="icon--nio" viewBox="0 0 32 32"><path fill-rule="evenodd" clip-rule="evenodd" d="M16 32c8.837 0 16-7.163 16-16S24.837 0 16 0 0 7.163 0 16s7.163 16 16 16z" fill="#E8EBF1"/><path fill="#686868" d="M9 15.715h14v1H9zM9 17.715h14v1H9z"/><path d="M21.023 22h-2.289l-5.617-9.102h-.062l.039.508c.073.969.11 1.854.11 2.656V22h-1.696V10.578h2.265l5.602 9.055h.047c-.01-.12-.031-.555-.063-1.305a45.414 45.414 0 01-.047-1.765v-5.985h1.711V22z" fill="#686868"/></symbol><symbol id="icon--notifications" viewBox="0 0 24 24"><path d="M12 22c1.1 0 2-.9 2-2h-4c0 1.1.9 2 2 2zm6-6v-5c0-3.07-1.63-5.64-4.5-6.32V4c0-.83-.67-1.5-1.5-1.5s-1.5.67-1.5 1.5v.68C7.64 5.36 6 7.92 6 11v5l-2 2v1h16v-1l-2-2zm-2 1H8v-6c0-2.48 1.51-4.5 4-4.5s4 2.02 4 4.5v6z"/></symbol><symbol id="icon--plain" viewBox="0 0 24 24"><path d="M20.782 3.218a.75.75 0 00-.787-.173l-16.5 6a.75.75 0 000 1.403l7.2 2.88 2.88 7.2a.75.75 0 00.675.472.75.75 0 00.69-.495l6-16.5a.75.75 0 00-.158-.787zM14.25 18.15l-2.093-5.25 3.593-3.592-1.058-1.058-3.622 3.623L5.85 9.75l13.147-4.747L14.25 18.15z"/></symbol><symbol id="icon--planet" viewBox="0 0 24 24"><path d="M11.99 2C6.47 2 2 6.48 2 12s4.47 10 9.99 10C17.52 22 22 17.52 22 12S17.52 2 11.99 2zm6.93 6h-2.95a15.65 15.65 0 00-1.38-3.56A8.03 8.03 0 0118.92 8zM12 4.04c.83 1.2 1.48 2.53 1.91 3.96h-3.82c.43-1.43 1.08-2.76 1.91-3.96zM4.26 14C4.1 13.36 4 12.69 4 12s.1-1.36.26-2h3.38c-.08.66-.14 1.32-.14 2 0 .68.06 1.34.14 2H4.26zm.82 2h2.95c.32 1.25.78 2.45 1.38 3.56A7.987 7.987 0 015.08 16zm2.95-8H5.08a7.987 7.987 0 014.33-3.56A15.65 15.65 0 008.03 8zM12 19.96c-.83-1.2-1.48-2.53-1.91-3.96h3.82c-.43 1.43-1.08 2.76-1.91 3.96zM14.34 14H9.66c-.09-.66-.16-1.32-.16-2 0-.68.07-1.35.16-2h4.68c.09.65.16 1.32.16 2 0 .68-.07 1.34-.16 2zm.25 5.56c.6-1.11 1.06-2.31 1.38-3.56h2.95a8.03 8.03 0 01-4.33 3.56zM16.36 14c.08-.66.14-1.32.14-2 0-.68-.06-1.34-.14-2h3.38c.16.64.26 1.31.26 2s-.1 1.36-.26 2h-3.38z"/></symbol><symbol id="icon--refresh" viewBox="0 0 24 24"><path d="M17.65 6.35A7.958 7.958 0 0012 4c-4.42 0-7.99 3.58-7.99 8s3.57 8 7.99 8c3.73 0 6.84-2.55 7.73-6h-2.08A5.99 5.99 0 0112 18c-3.31 0-6-2.69-6-6s2.69-6 6-6c1.66 0 3.14.69 4.22 1.78L13 11h7V4l-2.35 2.35z"/></symbol><symbol id="icon--reload-sharp" viewBox="0 0 24 24"><path d="M18.75 6.938l-.99-1.152A8.973 8.973 0 0011.25 3c-4.969 0-9 4.031-9 9s4.031 9 9 9a9.004 9.004 0 008.488-6" stroke="#000" stroke-width=".75" stroke-miterlimit="10" stroke-linecap="square"/><path d="M21.75 3.207v7.104a.187.187 0 01-.188.188h-7.104a.187.187 0 01-.132-.32l7.104-7.104a.187.187 0 01.32.132z"/></symbol><symbol id="icon--repeat" viewBox="0 0 24 24"><path d="M7 7h10v3l4-4-4-4v3H5v6h2V7zm10 10H7v-3l-4 4 4 4v-3h12v-6h-2v4z"/></symbol><symbol id="icon--search" viewBox="0 0 24 24"><path d="M15.5 14h-.79l-.28-.27A6.471 6.471 0 0016 9.5 6.5 6.5 0 109.5 16c1.61 0 3.09-.59 4.23-1.57l.27.28v.79l5 4.99L20.49 19l-4.99-5zm-6 0C7.01 14 5 11.99 5 9.5S7.01 5 9.5 5 14 7.01 14 9.5 11.99 14 9.5 14z"/></symbol><symbol id="icon--settings" viewBox="0 0 24 24"><path d="M18.99 11.5c.34 0 .67.03 1 .07L20 0 0 20h11.56c-.04-.33-.07-.66-.07-1 0-4.14 3.36-7.5 7.5-7.5zm3.71 7.99c.02-.16.04-.32.04-.49 0-.17-.01-.33-.04-.49l1.06-.83a.26.26 0 00.06-.32l-1-1.73c-.06-.11-.19-.15-.31-.11l-1.24.5c-.26-.2-.54-.37-.85-.49l-.19-1.32c-.01-.12-.12-.21-.24-.21h-2c-.12 0-.23.09-.25.21l-.19 1.32c-.3.13-.59.29-.85.49l-1.24-.5c-.11-.04-.24 0-.31.11l-1 1.73c-.06.11-.04.24.06.32l1.06.83a3.908 3.908 0 000 .98l-1.06.83a.26.26 0 00-.06.32l1 1.73c.06.11.19.15.31.11l1.24-.5c.26.2.54.37.85.49l.19 1.32c.02.12.12.21.25.21h2c.12 0 .23-.09.25-.21l.19-1.32c.3-.13.59-.29.84-.49l1.25.5c.11.04.24 0 .31-.11l1-1.73a.26.26 0 00-.06-.32l-1.07-.83zm-3.71 1.01c-.83 0-1.5-.67-1.5-1.5s.67-1.5 1.5-1.5 1.5.67 1.5 1.5-.67 1.5-1.5 1.5z"/></symbol><symbol id="icon--share" viewBox="0 0 24 24"><path d="M18 16.08c-.76 0-1.44.3-1.96.77L8.91 12.7c.05-.23.09-.46.09-.7 0-.24-.04-.47-.09-.7l7.05-4.11c.54.5 1.25.81 2.04.81 1.66 0 3-1.34 3-3s-1.34-3-3-3-3 1.34-3 3c0 .24.04.47.09.7L8.04 9.81C7.5 9.31 6.79 9 6 9c-1.66 0-3 1.34-3 3s1.34 3 3 3c.79 0 1.5-.31 2.04-.81l7.12 4.16c-.05.21-.08.43-.08.65 0 1.61 1.31 2.92 2.92 2.92 1.61 0 2.92-1.31 2.92-2.92 0-1.61-1.31-2.92-2.92-2.92z"/></symbol><symbol id="icon--usd" viewBox="0 0 32 32"><path fill-rule="evenodd" clip-rule="evenodd" d="M16 32c8.837 0 16-7.163 16-16S24.837 0 16 0 0 7.163 0 16s7.163 16 16 16z" fill="#E8EBF1"/><path d="M11.417 18.75h1.833c0 .99 1.256 1.833 2.75 1.833s2.75-.843 2.75-1.833c0-1.008-.953-1.375-2.97-1.86-1.943-.487-4.363-1.092-4.363-3.64 0-1.64 1.347-3.034 3.208-3.502V7.75h2.75v1.998c1.86.468 3.208 1.861 3.208 3.502H18.75c0-.99-1.256-1.833-2.75-1.833s-2.75.843-2.75 1.833c0 1.008.953 1.375 2.97 1.86 1.943.487 4.363 1.092 4.363 3.64 0 1.64-1.347 3.034-3.208 3.502v1.998h-2.75v-1.998c-1.86-.468-3.208-1.861-3.208-3.502z" fill="#686868"/></symbol><symbol id="icon--web" viewBox="0 0 24 24"><path d="M20 4H4c-1.1 0-1.99.9-1.99 2L2 18c0 1.1.9 2 2 2h16c1.1 0 2-.9 2-2V6c0-1.1-.9-2-2-2zm-5 14H4v-4h11v4zm0-5H4V9h11v4zm5 5h-4V9h4v9z"/></symbol></svg>